{
	"patcher" : 	{
		"fileversion" : 1,
		"appversion" : 		{
			"major" : 8,
			"minor" : 0,
			"revision" : 4,
			"architecture" : "x64",
			"modernui" : 1
		}
,
		"classnamespace" : "box",
		"rect" : [ 34.0, 79.0, 829.0, 722.0 ],
		"bglocked" : 0,
		"openinpresentation" : 0,
		"default_fontsize" : 12.0,
		"default_fontface" : 0,
		"default_fontname" : "Arial",
		"gridonopen" : 1,
		"gridsize" : [ 15.0, 15.0 ],
		"gridsnaponopen" : 1,
		"objectsnaponopen" : 1,
		"statusbarvisible" : 2,
		"toolbarvisible" : 1,
		"lefttoolbarpinned" : 0,
		"toptoolbarpinned" : 0,
		"righttoolbarpinned" : 0,
		"bottomtoolbarpinned" : 0,
		"toolbars_unpinned_last_save" : 0,
		"tallnewobj" : 0,
		"boxanimatetime" : 200,
		"enablehscroll" : 1,
		"enablevscroll" : 1,
		"devicewidth" : 0.0,
		"description" : "",
		"digest" : "",
		"tags" : "",
		"style" : "",
		"subpatcher_template" : "",
		"boxes" : [ 			{
				"box" : 				{
					"id" : "obj-15",
					"maxclass" : "message",
					"numinlets" : 2,
					"numoutlets" : 1,
					"outlettype" : [ "" ],
					"patching_rect" : [ 114.5, 384.0, 52.0, 22.0 ],
					"text" : "hehe t b"
				}

			}
, 			{
				"box" : 				{
					"id" : "obj-1665",
					"maxclass" : "newobj",
					"numinlets" : 3,
					"numoutlets" : 1,
					"outlettype" : [ "" ],
					"patcher" : 					{
						"fileversion" : 1,
						"appversion" : 						{
							"major" : 8,
							"minor" : 0,
							"revision" : 4,
							"architecture" : "x64",
							"modernui" : 1
						}
,
						"classnamespace" : "box",
						"rect" : [ 59.0, 104.0, 640.0, 480.0 ],
						"bglocked" : 0,
						"openinpresentation" : 0,
						"default_fontsize" : 12.0,
						"default_fontface" : 0,
						"default_fontname" : "Arial",
						"gridonopen" : 1,
						"gridsize" : [ 15.0, 15.0 ],
						"gridsnaponopen" : 1,
						"objectsnaponopen" : 1,
						"statusbarvisible" : 2,
						"toolbarvisible" : 1,
						"lefttoolbarpinned" : 0,
						"toptoolbarpinned" : 0,
						"righttoolbarpinned" : 0,
						"bottomtoolbarpinned" : 0,
						"toolbars_unpinned_last_save" : 0,
						"tallnewobj" : 0,
						"boxanimatetime" : 200,
						"enablehscroll" : 1,
						"enablevscroll" : 1,
						"devicewidth" : 0.0,
						"description" : "",
						"digest" : "",
						"tags" : "",
						"style" : "",
						"subpatcher_template" : "",
						"boxes" : [ 							{
								"box" : 								{
									"id" : "obj-1636",
									"maxclass" : "message",
									"numinlets" : 2,
									"numoutlets" : 1,
									"outlettype" : [ "" ],
									"patching_rect" : [ 241.0, 100.0, 159.0, 22.0 ],
									"text" : "script connect in0 0 trigger 0"
								}

							}
, 							{
								"box" : 								{
									"id" : "obj-1586",
									"maxclass" : "message",
									"numinlets" : 2,
									"numoutlets" : 1,
									"outlettype" : [ "" ],
									"patching_rect" : [ 434.0, 323.0, 163.0, 22.0 ],
									"text" : "script connect trigger $1 $2 0"
								}

							}
, 							{
								"box" : 								{
									"id" : "obj-1584",
									"maxclass" : "newobj",
									"numinlets" : 2,
									"numoutlets" : 1,
									"outlettype" : [ "" ],
									"patching_rect" : [ 454.0, 277.0, 113.5, 22.0 ],
									"text" : "join 2"
								}

							}
, 							{
								"box" : 								{
									"id" : "obj-1583",
									"maxclass" : "newobj",
									"numinlets" : 2,
									"numoutlets" : 1,
									"outlettype" : [ "int" ],
									"patching_rect" : [ 463.0, 225.5, 29.5, 22.0 ],
									"text" : "- 1"
								}

							}
, 							{
								"box" : 								{
									"id" : "obj-1582",
									"maxclass" : "newobj",
									"numinlets" : 1,
									"numoutlets" : 2,
									"outlettype" : [ "int", "int" ],
									"patching_rect" : [ 463.0, 173.0, 80.0, 22.0 ],
									"text" : "t i i"
								}

							}
, 							{
								"box" : 								{
									"id" : "obj-1581",
									"linecount" : 2,
									"maxclass" : "newobj",
									"numinlets" : 2,
									"numoutlets" : 2,
									"outlettype" : [ "", "" ],
									"patching_rect" : [ 505.0, 225.5, 92.0, 35.0 ],
									"text" : "combine out 0 @triggers 1"
								}

							}
, 							{
								"box" : 								{
									"id" : "obj-1579",
									"maxclass" : "newobj",
									"numinlets" : 2,
									"numoutlets" : 1,
									"outlettype" : [ "" ],
									"patching_rect" : [ 463.0, 143.0, 117.0, 22.0 ],
									"text" : "if $i1 == $i2 then $i1"
								}

							}
, 							{
								"box" : 								{
									"id" : "obj-1530",
									"maxclass" : "newobj",
									"numinlets" : 2,
									"numoutlets" : 1,
									"outlettype" : [ "int" ],
									"patching_rect" : [ 610.0, 229.0, 29.5, 22.0 ],
									"text" : "- 1"
								}

							}
, 							{
								"box" : 								{
									"id" : "obj-1505",
									"maxclass" : "newobj",
									"numinlets" : 2,
									"numoutlets" : 1,
									"outlettype" : [ "" ],
									"patching_rect" : [ 610.0, 143.0, 110.0, 22.0 ],
									"text" : "if $i1 < $i2 then $i1"
								}

							}
, 							{
								"box" : 								{
									"id" : "obj-1500",
									"maxclass" : "newobj",
									"numinlets" : 2,
									"numoutlets" : 1,
									"outlettype" : [ "" ],
									"patching_rect" : [ 610.0, 277.0, 113.5, 22.0 ],
									"text" : "join 2"
								}

							}
, 							{
								"box" : 								{
									"id" : "obj-1501",
									"maxclass" : "newobj",
									"numinlets" : 1,
									"numoutlets" : 2,
									"outlettype" : [ "int", "int" ],
									"patching_rect" : [ 610.0, 173.0, 188.0, 22.0 ],
									"text" : "t i i"
								}

							}
, 							{
								"box" : 								{
									"id" : "obj-1502",
									"linecount" : 2,
									"maxclass" : "newobj",
									"numinlets" : 2,
									"numoutlets" : 2,
									"outlettype" : [ "", "" ],
									"patching_rect" : [ 704.5, 229.0, 93.5, 35.0 ],
									"text" : "combine reg 0 @triggers 1"
								}

							}
, 							{
								"box" : 								{
									"id" : "obj-1504",
									"maxclass" : "message",
									"numinlets" : 2,
									"numoutlets" : 1,
									"outlettype" : [ "" ],
									"patching_rect" : [ 610.0, 311.0, 163.0, 22.0 ],
									"text" : "script connect trigger $1 $2 1"
								}

							}
, 							{
								"box" : 								{
									"id" : "obj-1227",
									"maxclass" : "newobj",
									"numinlets" : 2,
									"numoutlets" : 1,
									"outlettype" : [ "" ],
									"patching_rect" : [ 50.0, 163.0, 110.0, 22.0 ],
									"text" : "if $i1 < $i2 then $i1"
								}

							}
, 							{
								"box" : 								{
									"id" : "obj-1228",
									"maxclass" : "newobj",
									"numinlets" : 2,
									"numoutlets" : 1,
									"outlettype" : [ "" ],
									"patching_rect" : [ 50.0, 277.0, 113.5, 22.0 ],
									"text" : "join 2"
								}

							}
, 							{
								"box" : 								{
									"id" : "obj-1229",
									"maxclass" : "newobj",
									"numinlets" : 1,
									"numoutlets" : 2,
									"outlettype" : [ "int", "int" ],
									"patching_rect" : [ 50.0, 193.0, 188.0, 22.0 ],
									"text" : "t i i"
								}

							}
, 							{
								"box" : 								{
									"id" : "obj-1230",
									"linecount" : 2,
									"maxclass" : "newobj",
									"numinlets" : 2,
									"numoutlets" : 2,
									"outlettype" : [ "", "" ],
									"patching_rect" : [ 144.5, 229.0, 93.5, 35.0 ],
									"text" : "combine out 0 @triggers 1"
								}

							}
, 							{
								"box" : 								{
									"id" : "obj-1231",
									"linecount" : 2,
									"maxclass" : "newobj",
									"numinlets" : 2,
									"numoutlets" : 2,
									"outlettype" : [ "", "" ],
									"patching_rect" : [ 50.0, 229.0, 89.0, 35.0 ],
									"text" : "combine reg 0 @triggers 1"
								}

							}
, 							{
								"box" : 								{
									"id" : "obj-1232",
									"maxclass" : "message",
									"numinlets" : 2,
									"numoutlets" : 1,
									"outlettype" : [ "" ],
									"patching_rect" : [ 50.0, 311.0, 136.0, 22.0 ],
									"text" : "script connect $1 0 $2 0"
								}

							}
, 							{
								"box" : 								{
									"id" : "obj-1201",
									"maxclass" : "newobj",
									"numinlets" : 2,
									"numoutlets" : 1,
									"outlettype" : [ "int" ],
									"patching_rect" : [ 431.0, 200.0, 29.5, 22.0 ],
									"text" : "- 1"
								}

							}
, 							{
								"box" : 								{
									"id" : "obj-1099",
									"maxclass" : "newobj",
									"numinlets" : 1,
									"numoutlets" : 1,
									"outlettype" : [ "" ],
									"patching_rect" : [ 262.0, 143.0, 100.0, 22.0 ],
									"text" : "if $i1 > 1 then $i1"
								}

							}
, 							{
								"box" : 								{
									"id" : "obj-1100",
									"maxclass" : "newobj",
									"numinlets" : 2,
									"numoutlets" : 1,
									"outlettype" : [ "" ],
									"patching_rect" : [ 262.0, 277.0, 113.5, 22.0 ],
									"text" : "join 2"
								}

							}
, 							{
								"box" : 								{
									"id" : "obj-1101",
									"maxclass" : "newobj",
									"numinlets" : 1,
									"numoutlets" : 2,
									"outlettype" : [ "int", "int" ],
									"patching_rect" : [ 262.0, 173.0, 188.0, 22.0 ],
									"text" : "t i i"
								}

							}
, 							{
								"box" : 								{
									"id" : "obj-1102",
									"linecount" : 2,
									"maxclass" : "newobj",
									"numinlets" : 2,
									"numoutlets" : 2,
									"outlettype" : [ "", "" ],
									"patching_rect" : [ 356.5, 229.0, 93.5, 35.0 ],
									"text" : "combine reg 0 @triggers 1"
								}

							}
, 							{
								"box" : 								{
									"id" : "obj-1103",
									"linecount" : 2,
									"maxclass" : "newobj",
									"numinlets" : 2,
									"numoutlets" : 2,
									"outlettype" : [ "", "" ],
									"patching_rect" : [ 262.0, 229.0, 88.0, 35.0 ],
									"text" : "combine bang 0 @triggers 1"
								}

							}
, 							{
								"box" : 								{
									"id" : "obj-1104",
									"maxclass" : "message",
									"numinlets" : 2,
									"numoutlets" : 1,
									"outlettype" : [ "" ],
									"patching_rect" : [ 262.0, 311.0, 136.0, 22.0 ],
									"text" : "script connect $1 0 $2 0"
								}

							}
, 							{
								"box" : 								{
									"id" : "obj-1002",
									"maxclass" : "newobj",
									"numinlets" : 1,
									"numoutlets" : 1,
									"outlettype" : [ "" ],
									"patching_rect" : [ 804.0, 143.0, 100.0, 22.0 ],
									"text" : "if $i1 > 1 then $i1"
								}

							}
, 							{
								"box" : 								{
									"id" : "obj-905",
									"maxclass" : "newobj",
									"numinlets" : 2,
									"numoutlets" : 1,
									"outlettype" : [ "" ],
									"patching_rect" : [ 804.0, 255.0, 103.0, 22.0 ],
									"text" : "join 2"
								}

							}
, 							{
								"box" : 								{
									"id" : "obj-904",
									"maxclass" : "newobj",
									"numinlets" : 1,
									"numoutlets" : 2,
									"outlettype" : [ "int", "int" ],
									"patching_rect" : [ 804.0, 171.0, 177.5, 22.0 ],
									"text" : "t i i"
								}

							}
, 							{
								"box" : 								{
									"id" : "obj-693",
									"linecount" : 2,
									"maxclass" : "newobj",
									"numinlets" : 2,
									"numoutlets" : 2,
									"outlettype" : [ "", "" ],
									"patching_rect" : [ 888.0, 207.0, 97.0, 35.0 ],
									"text" : "combine bang 0 @triggers 1"
								}

							}
, 							{
								"box" : 								{
									"id" : "obj-29",
									"linecount" : 2,
									"maxclass" : "newobj",
									"numinlets" : 2,
									"numoutlets" : 2,
									"outlettype" : [ "", "" ],
									"patching_rect" : [ 804.0, 207.0, 80.0, 35.0 ],
									"text" : "combine in 0 @triggers 1"
								}

							}
, 							{
								"box" : 								{
									"id" : "obj-898",
									"maxclass" : "message",
									"numinlets" : 2,
									"numoutlets" : 1,
									"outlettype" : [ "" ],
									"patching_rect" : [ 804.0, 289.0, 136.0, 22.0 ],
									"text" : "script connect $1 0 $2 0"
								}

							}
, 							{
								"box" : 								{
									"comment" : "",
									"id" : "obj-1661",
									"index" : 3,
									"maxclass" : "inlet",
									"numinlets" : 0,
									"numoutlets" : 1,
									"outlettype" : [ "int" ],
									"patching_rect" : [ 431.799987999999985, 40.0, 30.0, 30.0 ]
								}

							}
, 							{
								"box" : 								{
									"comment" : "",
									"id" : "obj-1662",
									"index" : 2,
									"maxclass" : "inlet",
									"numinlets" : 0,
									"numoutlets" : 1,
									"outlettype" : [ "int" ],
									"patching_rect" : [ 368.333312999999976, 40.0, 30.0, 30.0 ]
								}

							}
, 							{
								"box" : 								{
									"comment" : "",
									"id" : "obj-1663",
									"index" : 1,
									"maxclass" : "inlet",
									"numinlets" : 0,
									"numoutlets" : 1,
									"outlettype" : [ "bang" ],
									"patching_rect" : [ 241.0, 40.0, 30.0, 30.0 ]
								}

							}
, 							{
								"box" : 								{
									"comment" : "",
									"id" : "obj-1664",
									"index" : 1,
									"maxclass" : "outlet",
									"numinlets" : 1,
									"numoutlets" : 0,
									"patching_rect" : [ 394.166687000000024, 405.0, 30.0, 30.0 ]
								}

							}
 ],
						"lines" : [ 							{
								"patchline" : 								{
									"destination" : [ "obj-904", 0 ],
									"source" : [ "obj-1002", 0 ]
								}

							}
, 							{
								"patchline" : 								{
									"destination" : [ "obj-1101", 0 ],
									"source" : [ "obj-1099", 0 ]
								}

							}
, 							{
								"patchline" : 								{
									"destination" : [ "obj-1104", 0 ],
									"source" : [ "obj-1100", 0 ]
								}

							}
, 							{
								"patchline" : 								{
									"destination" : [ "obj-1103", 1 ],
									"source" : [ "obj-1101", 0 ]
								}

							}
, 							{
								"patchline" : 								{
									"destination" : [ "obj-1201", 0 ],
									"source" : [ "obj-1101", 1 ]
								}

							}
, 							{
								"patchline" : 								{
									"destination" : [ "obj-1100", 1 ],
									"source" : [ "obj-1102", 0 ]
								}

							}
, 							{
								"patchline" : 								{
									"destination" : [ "obj-1100", 0 ],
									"source" : [ "obj-1103", 0 ]
								}

							}
, 							{
								"patchline" : 								{
									"destination" : [ "obj-1664", 0 ],
									"source" : [ "obj-1104", 0 ]
								}

							}
, 							{
								"patchline" : 								{
									"destination" : [ "obj-1102", 1 ],
									"source" : [ "obj-1201", 0 ]
								}

							}
, 							{
								"patchline" : 								{
									"destination" : [ "obj-1229", 0 ],
									"source" : [ "obj-1227", 0 ]
								}

							}
, 							{
								"patchline" : 								{
									"destination" : [ "obj-1232", 0 ],
									"source" : [ "obj-1228", 0 ]
								}

							}
, 							{
								"patchline" : 								{
									"destination" : [ "obj-1230", 1 ],
									"source" : [ "obj-1229", 1 ]
								}

							}
, 							{
								"patchline" : 								{
									"destination" : [ "obj-1231", 1 ],
									"source" : [ "obj-1229", 0 ]
								}

							}
, 							{
								"patchline" : 								{
									"destination" : [ "obj-1228", 1 ],
									"source" : [ "obj-1230", 0 ]
								}

							}
, 							{
								"patchline" : 								{
									"destination" : [ "obj-1228", 0 ],
									"source" : [ "obj-1231", 0 ]
								}

							}
, 							{
								"patchline" : 								{
									"destination" : [ "obj-1664", 0 ],
									"source" : [ "obj-1232", 0 ]
								}

							}
, 							{
								"patchline" : 								{
									"destination" : [ "obj-1504", 0 ],
									"source" : [ "obj-1500", 0 ]
								}

							}
, 							{
								"patchline" : 								{
									"destination" : [ "obj-1502", 1 ],
									"source" : [ "obj-1501", 1 ]
								}

							}
, 							{
								"patchline" : 								{
									"destination" : [ "obj-1530", 0 ],
									"source" : [ "obj-1501", 0 ]
								}

							}
, 							{
								"patchline" : 								{
									"destination" : [ "obj-1500", 1 ],
									"source" : [ "obj-1502", 0 ]
								}

							}
, 							{
								"patchline" : 								{
									"destination" : [ "obj-1664", 0 ],
									"source" : [ "obj-1504", 0 ]
								}

							}
, 							{
								"patchline" : 								{
									"destination" : [ "obj-1501", 0 ],
									"source" : [ "obj-1505", 0 ]
								}

							}
, 							{
								"patchline" : 								{
									"destination" : [ "obj-1500", 0 ],
									"source" : [ "obj-1530", 0 ]
								}

							}
, 							{
								"patchline" : 								{
									"destination" : [ "obj-1582", 0 ],
									"source" : [ "obj-1579", 0 ]
								}

							}
, 							{
								"patchline" : 								{
									"destination" : [ "obj-1584", 1 ],
									"source" : [ "obj-1581", 0 ]
								}

							}
, 							{
								"patchline" : 								{
									"destination" : [ "obj-1581", 1 ],
									"source" : [ "obj-1582", 1 ]
								}

							}
, 							{
								"patchline" : 								{
									"destination" : [ "obj-1583", 0 ],
									"source" : [ "obj-1582", 0 ]
								}

							}
, 							{
								"patchline" : 								{
									"destination" : [ "obj-1584", 0 ],
									"source" : [ "obj-1583", 0 ]
								}

							}
, 							{
								"patchline" : 								{
									"destination" : [ "obj-1586", 0 ],
									"source" : [ "obj-1584", 0 ]
								}

							}
, 							{
								"patchline" : 								{
									"destination" : [ "obj-1664", 0 ],
									"source" : [ "obj-1586", 0 ]
								}

							}
, 							{
								"patchline" : 								{
									"destination" : [ "obj-1664", 0 ],
									"source" : [ "obj-1636", 0 ]
								}

							}
, 							{
								"patchline" : 								{
									"destination" : [ "obj-1002", 0 ],
									"order" : 0,
									"source" : [ "obj-1661", 0 ]
								}

							}
, 							{
								"patchline" : 								{
									"destination" : [ "obj-1099", 0 ],
									"order" : 3,
									"source" : [ "obj-1661", 0 ]
								}

							}
, 							{
								"patchline" : 								{
									"destination" : [ "obj-1227", 0 ],
									"order" : 4,
									"source" : [ "obj-1661", 0 ]
								}

							}
, 							{
								"patchline" : 								{
									"destination" : [ "obj-1505", 0 ],
									"order" : 1,
									"source" : [ "obj-1661", 0 ]
								}

							}
, 							{
								"patchline" : 								{
									"destination" : [ "obj-1579", 0 ],
									"order" : 2,
									"source" : [ "obj-1661", 0 ]
								}

							}
, 							{
								"patchline" : 								{
									"destination" : [ "obj-1227", 1 ],
									"order" : 2,
									"source" : [ "obj-1662", 0 ]
								}

							}
, 							{
								"patchline" : 								{
									"destination" : [ "obj-1505", 1 ],
									"order" : 0,
									"source" : [ "obj-1662", 0 ]
								}

							}
, 							{
								"patchline" : 								{
									"destination" : [ "obj-1579", 1 ],
									"order" : 1,
									"source" : [ "obj-1662", 0 ]
								}

							}
, 							{
								"patchline" : 								{
									"destination" : [ "obj-1636", 0 ],
									"source" : [ "obj-1663", 0 ]
								}

							}
, 							{
								"patchline" : 								{
									"destination" : [ "obj-905", 0 ],
									"source" : [ "obj-29", 0 ]
								}

							}
, 							{
								"patchline" : 								{
									"destination" : [ "obj-905", 1 ],
									"source" : [ "obj-693", 0 ]
								}

							}
, 							{
								"patchline" : 								{
									"destination" : [ "obj-1664", 0 ],
									"source" : [ "obj-898", 0 ]
								}

							}
, 							{
								"patchline" : 								{
									"destination" : [ "obj-29", 1 ],
									"source" : [ "obj-904", 0 ]
								}

							}
, 							{
								"patchline" : 								{
									"destination" : [ "obj-693", 1 ],
									"source" : [ "obj-904", 1 ]
								}

							}
, 							{
								"patchline" : 								{
									"destination" : [ "obj-898", 0 ],
									"source" : [ "obj-905", 0 ]
								}

							}
 ]
					}
,
					"patching_rect" : [ 17.5, 603.0, 105.0, 22.0 ],
					"saved_object_attributes" : 					{
						"description" : "",
						"digest" : "",
						"globalpatchername" : "",
						"tags" : ""
					}
,
					"text" : "p connect_objects"
				}

			}
, 			{
				"box" : 				{
					"comment" : "(any): trigger",
					"id" : "obj-1473",
					"index" : 1,
					"maxclass" : "inlet",
					"numinlets" : 0,
					"numoutlets" : 1,
					"outlettype" : [ "" ],
					"patching_rect" : [ 10.0, 10.0, 30.0, 30.0 ],
					"tricolor" : [ 0.67843137254902, 0.301960784313725, 0.301960784313725, 1.0 ],
					"varname" : "in0"
				}

			}
, 			{
				"box" : 				{
					"id" : "obj-896",
					"maxclass" : "newobj",
					"numinlets" : 3,
					"numoutlets" : 1,
					"outlettype" : [ "" ],
					"patcher" : 					{
						"fileversion" : 1,
						"appversion" : 						{
							"major" : 8,
							"minor" : 0,
							"revision" : 4,
							"architecture" : "x64",
							"modernui" : 1
						}
,
						"classnamespace" : "box",
						"rect" : [ 34.0, 79.0, 1372.0, 722.0 ],
						"bglocked" : 0,
						"openinpresentation" : 0,
						"default_fontsize" : 12.0,
						"default_fontface" : 0,
						"default_fontname" : "Arial",
						"gridonopen" : 1,
						"gridsize" : [ 15.0, 15.0 ],
						"gridsnaponopen" : 1,
						"objectsnaponopen" : 1,
						"statusbarvisible" : 2,
						"toolbarvisible" : 1,
						"lefttoolbarpinned" : 0,
						"toptoolbarpinned" : 0,
						"righttoolbarpinned" : 0,
						"bottomtoolbarpinned" : 0,
						"toolbars_unpinned_last_save" : 0,
						"tallnewobj" : 0,
						"boxanimatetime" : 200,
						"enablehscroll" : 1,
						"enablevscroll" : 1,
						"devicewidth" : 0.0,
						"description" : "",
						"digest" : "",
						"tags" : "",
						"style" : "",
						"subpatcher_template" : "",
						"boxes" : [ 							{
								"box" : 								{
									"id" : "obj-3",
									"maxclass" : "newobj",
									"numinlets" : 2,
									"numoutlets" : 1,
									"outlettype" : [ "int" ],
									"patching_rect" : [ 192.0, 227.0, 36.0, 22.0 ],
									"text" : "* 110"
								}

							}
, 							{
								"box" : 								{
									"id" : "obj-2",
									"maxclass" : "newobj",
									"numinlets" : 2,
									"numoutlets" : 1,
									"outlettype" : [ "int" ],
									"patching_rect" : [ 206.0, 167.0, 29.5, 22.0 ],
									"text" : "+ 1"
								}

							}
, 							{
								"box" : 								{
									"comment" : "",
									"id" : "obj-1",
									"index" : 3,
									"maxclass" : "inlet",
									"numinlets" : 0,
									"numoutlets" : 1,
									"outlettype" : [ "int" ],
									"patching_rect" : [ 386.0, 28.0, 30.0, 30.0 ]
								}

							}
, 							{
								"box" : 								{
									"id" : "obj-837",
									"maxclass" : "newobj",
									"numinlets" : 2,
									"numoutlets" : 1,
									"outlettype" : [ "" ],
									"patching_rect" : [ 394.5, 117.0, 110.0, 22.0 ],
									"text" : "if $i1 < $i2 then $i1"
								}

							}
, 							{
								"box" : 								{
									"id" : "obj-836",
									"maxclass" : "newobj",
									"numinlets" : 1,
									"numoutlets" : 1,
									"outlettype" : [ "" ],
									"patching_rect" : [ 817.0, 100.0, 100.0, 22.0 ],
									"text" : "if $i1 > 1 then $i1"
								}

							}
, 							{
								"box" : 								{
									"id" : "obj-808",
									"maxclass" : "newobj",
									"numinlets" : 1,
									"numoutlets" : 1,
									"outlettype" : [ "" ],
									"patching_rect" : [ 623.0, 117.0, 100.0, 22.0 ],
									"text" : "if $i1 > 1 then $i1"
								}

							}
, 							{
								"box" : 								{
									"id" : "obj-688",
									"maxclass" : "newobj",
									"numinlets" : 2,
									"numoutlets" : 1,
									"outlettype" : [ "" ],
									"patching_rect" : [ 623.0, 297.0, 37.0, 22.0 ],
									"text" : "join 2"
								}

							}
, 							{
								"box" : 								{
									"id" : "obj-690",
									"maxclass" : "message",
									"numinlets" : 2,
									"numoutlets" : 1,
									"outlettype" : [ "" ],
									"patching_rect" : [ 623.0, 333.0, 185.0, 22.0 ],
									"text" : "script newdefault $1 $2 60 button"
								}

							}
, 							{
								"box" : 								{
									"id" : "obj-691",
									"maxclass" : "newobj",
									"numinlets" : 1,
									"numoutlets" : 1,
									"outlettype" : [ "" ],
									"patching_rect" : [ 650.5, 205.0, 121.0, 22.0 ],
									"text" : "prepend script delete"
								}

							}
, 							{
								"box" : 								{
									"id" : "obj-692",
									"maxclass" : "newobj",
									"numinlets" : 1,
									"numoutlets" : 2,
									"outlettype" : [ "", "" ],
									"patching_rect" : [ 623.0, 178.0, 46.5, 22.0 ],
									"text" : "t l l"
								}

							}
, 							{
								"box" : 								{
									"id" : "obj-693",
									"maxclass" : "newobj",
									"numinlets" : 2,
									"numoutlets" : 2,
									"outlettype" : [ "", "" ],
									"patching_rect" : [ 623.0, 151.0, 159.0, 22.0 ],
									"text" : "combine bang 0 @triggers 1"
								}

							}
, 							{
								"box" : 								{
									"id" : "obj-363",
									"maxclass" : "message",
									"numinlets" : 2,
									"numoutlets" : 1,
									"outlettype" : [ "" ],
									"patching_rect" : [ 394.5, 333.0, 188.0, 22.0 ],
									"text" : "script newdefault $1 $2 250 zl.reg"
								}

							}
, 							{
								"box" : 								{
									"id" : "obj-364",
									"maxclass" : "newobj",
									"numinlets" : 2,
									"numoutlets" : 1,
									"outlettype" : [ "" ],
									"patching_rect" : [ 394.5, 297.0, 37.0, 22.0 ],
									"text" : "join 2"
								}

							}
, 							{
								"box" : 								{
									"id" : "obj-365",
									"maxclass" : "newobj",
									"numinlets" : 1,
									"numoutlets" : 1,
									"outlettype" : [ "" ],
									"patching_rect" : [ 422.0, 205.0, 121.0, 22.0 ],
									"text" : "prepend script delete"
								}

							}
, 							{
								"box" : 								{
									"id" : "obj-366",
									"maxclass" : "newobj",
									"numinlets" : 1,
									"numoutlets" : 2,
									"outlettype" : [ "", "" ],
									"patching_rect" : [ 394.5, 178.0, 46.5, 22.0 ],
									"text" : "t l l"
								}

							}
, 							{
								"box" : 								{
									"id" : "obj-367",
									"maxclass" : "newobj",
									"numinlets" : 2,
									"numoutlets" : 2,
									"outlettype" : [ "", "" ],
									"patching_rect" : [ 394.5, 151.0, 150.0, 22.0 ],
									"text" : "combine reg 0 @triggers 1"
								}

							}
, 							{
								"box" : 								{
									"id" : "obj-144",
									"maxclass" : "message",
									"numinlets" : 2,
									"numoutlets" : 1,
									"outlettype" : [ "" ],
									"patching_rect" : [ 18.5, 348.0, 188.0, 22.0 ],
									"text" : "script newdefault $1 $2 330 outlet"
								}

							}
, 							{
								"box" : 								{
									"id" : "obj-140",
									"maxclass" : "newobj",
									"numinlets" : 2,
									"numoutlets" : 1,
									"outlettype" : [ "" ],
									"patching_rect" : [ 18.5, 312.0, 37.0, 22.0 ],
									"text" : "join 2"
								}

							}
, 							{
								"box" : 								{
									"id" : "obj-141",
									"maxclass" : "newobj",
									"numinlets" : 1,
									"numoutlets" : 1,
									"outlettype" : [ "" ],
									"patching_rect" : [ 46.0, 220.0, 121.0, 22.0 ],
									"text" : "prepend script delete"
								}

							}
, 							{
								"box" : 								{
									"id" : "obj-142",
									"maxclass" : "newobj",
									"numinlets" : 1,
									"numoutlets" : 2,
									"outlettype" : [ "", "" ],
									"patching_rect" : [ 18.5, 193.0, 46.5, 22.0 ],
									"text" : "t l l"
								}

							}
, 							{
								"box" : 								{
									"id" : "obj-143",
									"maxclass" : "newobj",
									"numinlets" : 2,
									"numoutlets" : 2,
									"outlettype" : [ "", "" ],
									"patching_rect" : [ 18.5, 166.0, 149.0, 22.0 ],
									"text" : "combine out 0 @triggers 1"
								}

							}
, 							{
								"box" : 								{
									"id" : "obj-68",
									"maxclass" : "newobj",
									"numinlets" : 2,
									"numoutlets" : 1,
									"outlettype" : [ "" ],
									"patching_rect" : [ 817.0, 280.0, 37.0, 22.0 ],
									"text" : "join 2"
								}

							}
, 							{
								"box" : 								{
									"id" : "obj-67",
									"maxclass" : "newobj",
									"numinlets" : 2,
									"numoutlets" : 1,
									"outlettype" : [ "int" ],
									"patching_rect" : [ 239.0, 227.0, 36.0, 22.0 ],
									"text" : "* 110"
								}

							}
, 							{
								"box" : 								{
									"id" : "obj-40",
									"maxclass" : "message",
									"numinlets" : 2,
									"numoutlets" : 1,
									"outlettype" : [ "" ],
									"patching_rect" : [ 817.0, 333.0, 344.0, 22.0 ],
									"text" : "script newdefault $1 $2 10 inlet @comment (bang): trigger next"
								}

							}
, 							{
								"box" : 								{
									"id" : "obj-36",
									"maxclass" : "newobj",
									"numinlets" : 1,
									"numoutlets" : 1,
									"outlettype" : [ "" ],
									"patching_rect" : [ 844.5, 188.0, 121.0, 22.0 ],
									"text" : "prepend script delete"
								}

							}
, 							{
								"box" : 								{
									"id" : "obj-33",
									"maxclass" : "newobj",
									"numinlets" : 1,
									"numoutlets" : 2,
									"outlettype" : [ "", "" ],
									"patching_rect" : [ 817.0, 161.0, 46.5, 22.0 ],
									"text" : "t l l"
								}

							}
, 							{
								"box" : 								{
									"id" : "obj-29",
									"maxclass" : "newobj",
									"numinlets" : 2,
									"numoutlets" : 2,
									"outlettype" : [ "", "" ],
									"patching_rect" : [ 817.0, 134.0, 142.0, 22.0 ],
									"text" : "combine in 0 @triggers 1"
								}

							}
, 							{
								"box" : 								{
									"comment" : "",
									"id" : "obj-892",
									"index" : 1,
									"maxclass" : "inlet",
									"numinlets" : 0,
									"numoutlets" : 1,
									"outlettype" : [ "int" ],
									"patching_rect" : [ 148.5, 35.0, 30.0, 30.0 ]
								}

							}
, 							{
								"box" : 								{
									"comment" : "",
									"id" : "obj-893",
									"index" : 2,
									"maxclass" : "inlet",
									"numinlets" : 0,
									"numoutlets" : 1,
									"outlettype" : [ "int" ],
									"patching_rect" : [ 239.0, 40.0, 30.0, 30.0 ]
								}

							}
, 							{
								"box" : 								{
									"comment" : "",
									"id" : "obj-895",
									"index" : 1,
									"maxclass" : "outlet",
									"numinlets" : 1,
									"numoutlets" : 0,
									"patching_rect" : [ -10.75, 676.0, 30.0, 30.0 ]
								}

							}
 ],
						"lines" : [ 							{
								"patchline" : 								{
									"destination" : [ "obj-837", 1 ],
									"source" : [ "obj-1", 0 ]
								}

							}
, 							{
								"patchline" : 								{
									"destination" : [ "obj-144", 0 ],
									"source" : [ "obj-140", 0 ]
								}

							}
, 							{
								"patchline" : 								{
									"destination" : [ "obj-895", 0 ],
									"source" : [ "obj-141", 0 ]
								}

							}
, 							{
								"patchline" : 								{
									"destination" : [ "obj-140", 0 ],
									"source" : [ "obj-142", 0 ]
								}

							}
, 							{
								"patchline" : 								{
									"destination" : [ "obj-141", 0 ],
									"source" : [ "obj-142", 1 ]
								}

							}
, 							{
								"patchline" : 								{
									"destination" : [ "obj-142", 0 ],
									"source" : [ "obj-143", 0 ]
								}

							}
, 							{
								"patchline" : 								{
									"destination" : [ "obj-895", 0 ],
									"source" : [ "obj-144", 0 ]
								}

							}
, 							{
								"patchline" : 								{
									"destination" : [ "obj-3", 0 ],
									"source" : [ "obj-2", 0 ]
								}

							}
, 							{
								"patchline" : 								{
									"destination" : [ "obj-33", 0 ],
									"source" : [ "obj-29", 0 ]
								}

							}
, 							{
								"patchline" : 								{
									"destination" : [ "obj-140", 1 ],
									"order" : 1,
									"source" : [ "obj-3", 0 ]
								}

							}
, 							{
								"patchline" : 								{
									"destination" : [ "obj-364", 1 ],
									"order" : 0,
									"source" : [ "obj-3", 0 ]
								}

							}
, 							{
								"patchline" : 								{
									"destination" : [ "obj-36", 0 ],
									"source" : [ "obj-33", 1 ]
								}

							}
, 							{
								"patchline" : 								{
									"destination" : [ "obj-68", 0 ],
									"source" : [ "obj-33", 0 ]
								}

							}
, 							{
								"patchline" : 								{
									"destination" : [ "obj-895", 0 ],
									"source" : [ "obj-36", 0 ]
								}

							}
, 							{
								"patchline" : 								{
									"destination" : [ "obj-895", 0 ],
									"source" : [ "obj-363", 0 ]
								}

							}
, 							{
								"patchline" : 								{
									"destination" : [ "obj-363", 0 ],
									"source" : [ "obj-364", 0 ]
								}

							}
, 							{
								"patchline" : 								{
									"destination" : [ "obj-895", 0 ],
									"source" : [ "obj-365", 0 ]
								}

							}
, 							{
								"patchline" : 								{
									"destination" : [ "obj-364", 0 ],
									"source" : [ "obj-366", 0 ]
								}

							}
, 							{
								"patchline" : 								{
									"destination" : [ "obj-365", 0 ],
									"source" : [ "obj-366", 1 ]
								}

							}
, 							{
								"patchline" : 								{
									"destination" : [ "obj-366", 0 ],
									"source" : [ "obj-367", 0 ]
								}

							}
, 							{
								"patchline" : 								{
									"destination" : [ "obj-895", 0 ],
									"source" : [ "obj-40", 0 ]
								}

							}
, 							{
								"patchline" : 								{
									"destination" : [ "obj-68", 1 ],
									"order" : 0,
									"source" : [ "obj-67", 0 ]
								}

							}
, 							{
								"patchline" : 								{
									"destination" : [ "obj-688", 1 ],
									"order" : 1,
									"source" : [ "obj-67", 0 ]
								}

							}
, 							{
								"patchline" : 								{
									"destination" : [ "obj-40", 0 ],
									"source" : [ "obj-68", 0 ]
								}

							}
, 							{
								"patchline" : 								{
									"destination" : [ "obj-690", 0 ],
									"source" : [ "obj-688", 0 ]
								}

							}
, 							{
								"patchline" : 								{
									"destination" : [ "obj-895", 0 ],
									"source" : [ "obj-690", 0 ]
								}

							}
, 							{
								"patchline" : 								{
									"destination" : [ "obj-895", 0 ],
									"source" : [ "obj-691", 0 ]
								}

							}
, 							{
								"patchline" : 								{
									"destination" : [ "obj-688", 0 ],
									"source" : [ "obj-692", 0 ]
								}

							}
, 							{
								"patchline" : 								{
									"destination" : [ "obj-691", 0 ],
									"source" : [ "obj-692", 1 ]
								}

							}
, 							{
								"patchline" : 								{
									"destination" : [ "obj-692", 0 ],
									"source" : [ "obj-693", 0 ]
								}

							}
, 							{
								"patchline" : 								{
									"destination" : [ "obj-693", 1 ],
									"source" : [ "obj-808", 0 ]
								}

							}
, 							{
								"patchline" : 								{
									"destination" : [ "obj-29", 1 ],
									"source" : [ "obj-836", 0 ]
								}

							}
, 							{
								"patchline" : 								{
									"destination" : [ "obj-367", 1 ],
									"source" : [ "obj-837", 0 ]
								}

							}
, 							{
								"patchline" : 								{
									"destination" : [ "obj-143", 1 ],
									"order" : 3,
									"source" : [ "obj-892", 0 ]
								}

							}
, 							{
								"patchline" : 								{
									"destination" : [ "obj-808", 0 ],
									"order" : 1,
									"source" : [ "obj-892", 0 ]
								}

							}
, 							{
								"patchline" : 								{
									"destination" : [ "obj-836", 0 ],
									"order" : 0,
									"source" : [ "obj-892", 0 ]
								}

							}
, 							{
								"patchline" : 								{
									"destination" : [ "obj-837", 0 ],
									"order" : 2,
									"source" : [ "obj-892", 0 ]
								}

							}
, 							{
								"patchline" : 								{
									"destination" : [ "obj-2", 0 ],
									"order" : 1,
									"source" : [ "obj-893", 0 ]
								}

							}
, 							{
								"patchline" : 								{
									"destination" : [ "obj-67", 0 ],
									"order" : 0,
									"source" : [ "obj-893", 0 ]
								}

							}
 ]
					}
,
					"patching_rect" : [ 142.0, 603.0, 97.0, 22.0 ],
					"saved_object_attributes" : 					{
						"description" : "",
						"digest" : "",
						"globalpatchername" : "",
						"tags" : ""
					}
,
					"text" : "p create_objects"
				}

			}
, 			{
				"box" : 				{
					"id" : "obj-838",
					"maxclass" : "newobj",
					"numinlets" : 1,
					"numoutlets" : 3,
					"outlettype" : [ "bang", "int", "int" ],
					"patching_rect" : [ 17.5, 482.0, 149.0, 22.0 ],
					"text" : "t b i i"
				}

			}
, 			{
				"box" : 				{
					"id" : "obj-69",
					"maxclass" : "newobj",
					"numinlets" : 1,
					"numoutlets" : 3,
					"outlettype" : [ "int", "int", "int" ],
					"patching_rect" : [ 103.5, 562.0, 96.5, 22.0 ],
					"text" : "t i i i"
				}

			}
, 			{
				"box" : 				{
					"id" : "obj-18",
					"maxclass" : "newobj",
					"numinlets" : 2,
					"numoutlets" : 3,
					"outlettype" : [ "bang", "bang", "int" ],
					"patching_rect" : [ 82.5, 529.0, 40.0, 22.0 ],
					"text" : "uzi 1"
				}

			}
, 			{
				"box" : 				{
					"id" : "obj-17",
					"maxclass" : "newobj",
					"numinlets" : 2,
					"numoutlets" : 2,
					"outlettype" : [ "", "" ],
					"patching_rect" : [ 17.5, 451.0, 37.0, 22.0 ],
					"text" : "zl.len"
				}

			}
, 			{
				"box" : 				{
					"id" : "obj-16",
					"linecount" : 3,
					"maxclass" : "newobj",
					"numinlets" : 1,
					"numoutlets" : 1,
					"outlettype" : [ "" ],
					"patching_rect" : [ 245.5, 603.0, 96.0, 49.0 ],
					"text" : "prepend script newdefault trigger 10 60 t"
				}

			}
, 			{
				"box" : 				{
					"id" : "obj-13",
					"maxclass" : "message",
					"numinlets" : 2,
					"numoutlets" : 1,
					"outlettype" : [ "" ],
					"patching_rect" : [ 353.5, 603.0, 111.0, 22.0 ],
					"text" : "script delete trigger"
				}

			}
, 			{
				"box" : 				{
					"id" : "obj-11",
					"maxclass" : "newobj",
					"numinlets" : 1,
					"numoutlets" : 3,
					"outlettype" : [ "", "", "bang" ],
					"patching_rect" : [ 17.5, 420.0, 355.0, 22.0 ],
					"text" : "t l l b"
				}

			}
, 			{
				"box" : 				{
					"id" : "obj-6",
					"maxclass" : "newobj",
					"numinlets" : 1,
					"numoutlets" : 2,
					"outlettype" : [ "", "" ],
					"patching_rect" : [ 17.5, 687.0, 67.0, 22.0 ],
					"save" : [ "#N", "thispatcher", ";", "#Q", "end", ";" ],
					"text" : "thispatcher"
				}

			}
, 			{
				"box" : 				{
					"id" : "obj-2",
					"maxclass" : "newobj",
					"numinlets" : 1,
					"numoutlets" : 2,
					"outlettype" : [ "", "" ],
					"patching_rect" : [ 17.5, 384.0, 72.0, 22.0 ],
					"text" : "patcherargs"
				}

			}
, 			{
				"box" : 				{
					"id" : "obj-1",
					"maxclass" : "newobj",
					"numinlets" : 1,
					"numoutlets" : 5,
					"outlettype" : [ "", "", "bang", "", "" ],
					"patching_rect" : [ 10.0, 60.0, 100.0, 22.0 ],
					"text" : "t l l b l l",
					"varname" : "trigger"
				}

			}
, 			{
				"box" : 				{
					"id" : "obj-3",
					"maxclass" : "newobj",
					"numinlets" : 2,
					"numoutlets" : 2,
					"outlettype" : [ "", "" ],
					"patching_rect" : [ 220.0, 250.0, 100.0, 22.0 ],
					"text" : "zl.reg",
					"varname" : "reg1"
				}

			}
, 			{
				"box" : 				{
					"comment" : "",
					"id" : "obj-5",
					"index" : 1,
					"maxclass" : "outlet",
					"numinlets" : 1,
					"numoutlets" : 0,
					"patching_rect" : [ 220.0, 330.0, 30.0, 30.0 ],
					"varname" : "out1"
				}

			}
, 			{
				"box" : 				{
					"comment" : "(bang):",
					"id" : "obj-8",
					"index" : 2,
					"maxclass" : "inlet",
					"numinlets" : 0,
					"numoutlets" : 1,
					"outlettype" : [ "" ],
					"patching_rect" : [ 220.0, 10.0, 30.0, 30.0 ],
					"varname" : "in2"
				}

			}
, 			{
				"box" : 				{
					"id" : "obj-10",
					"maxclass" : "button",
					"numinlets" : 1,
					"numoutlets" : 1,
					"outlettype" : [ "bang" ],
					"parameter_enable" : 0,
					"patching_rect" : [ 220.0, 60.0, 24.0, 24.0 ],
					"varname" : "bang2"
				}

			}
, 			{
				"box" : 				{
					"id" : "obj-12",
					"maxclass" : "newobj",
					"numinlets" : 2,
					"numoutlets" : 2,
					"outlettype" : [ "", "" ],
					"patching_rect" : [ 330.0, 250.0, 100.0, 22.0 ],
					"text" : "zl.reg",
					"varname" : "reg2"
				}

			}
, 			{
				"box" : 				{
					"comment" : "",
					"id" : "obj-19",
					"index" : 2,
					"maxclass" : "outlet",
					"numinlets" : 1,
					"numoutlets" : 0,
					"patching_rect" : [ 330.0, 330.0, 30.0, 30.0 ],
					"varname" : "out2"
				}

			}
, 			{
				"box" : 				{
					"comment" : "(bang):",
					"id" : "obj-21",
					"index" : 3,
					"maxclass" : "inlet",
					"numinlets" : 0,
					"numoutlets" : 1,
					"outlettype" : [ "" ],
					"patching_rect" : [ 330.0, 10.0, 30.0, 30.0 ],
					"varname" : "in3"
				}

			}
, 			{
				"box" : 				{
					"id" : "obj-23",
					"maxclass" : "button",
					"numinlets" : 1,
					"numoutlets" : 1,
					"outlettype" : [ "bang" ],
					"parameter_enable" : 0,
					"patching_rect" : [ 330.0, 60.0, 24.0, 24.0 ],
					"varname" : "bang3"
				}

			}
, 			{
				"box" : 				{
					"id" : "obj-24",
					"maxclass" : "newobj",
					"numinlets" : 2,
					"numoutlets" : 2,
					"outlettype" : [ "", "" ],
					"patching_rect" : [ 440.0, 250.0, 100.0, 22.0 ],
					"text" : "zl.reg",
					"varname" : "reg3"
				}

			}
, 			{
				"box" : 				{
					"comment" : "",
					"id" : "obj-26",
					"index" : 3,
					"maxclass" : "outlet",
					"numinlets" : 1,
					"numoutlets" : 0,
					"patching_rect" : [ 440.0, 330.0, 30.0, 30.0 ],
					"varname" : "out3"
				}

			}
, 			{
				"box" : 				{
					"comment" : "(bang):",
					"id" : "obj-28",
					"index" : 4,
					"maxclass" : "inlet",
					"numinlets" : 0,
					"numoutlets" : 1,
					"outlettype" : [ "" ],
					"patching_rect" : [ 440.0, 10.0, 30.0, 30.0 ],
					"varname" : "in4"
				}

			}
, 			{
				"box" : 				{
					"id" : "obj-30",
					"maxclass" : "button",
					"numinlets" : 1,
					"numoutlets" : 1,
					"outlettype" : [ "bang" ],
					"parameter_enable" : 0,
					"patching_rect" : [ 440.0, 60.0, 24.0, 24.0 ],
					"varname" : "bang4"
				}

			}
, 			{
				"box" : 				{
					"id" : "obj-31",
					"maxclass" : "newobj",
					"numinlets" : 2,
					"numoutlets" : 2,
					"outlettype" : [ "", "" ],
					"patching_rect" : [ 550.0, 250.0, 100.0, 22.0 ],
					"text" : "zl.reg",
					"varname" : "reg4"
				}

			}
, 			{
				"box" : 				{
					"comment" : "",
					"id" : "obj-33",
					"index" : 4,
					"maxclass" : "outlet",
					"numinlets" : 1,
					"numoutlets" : 0,
					"patching_rect" : [ 550.0, 330.0, 30.0, 30.0 ],
					"varname" : "out4"
				}

			}
, 			{
				"box" : 				{
					"comment" : "(bang):",
					"id" : "obj-35",
					"index" : 5,
					"maxclass" : "inlet",
					"numinlets" : 0,
					"numoutlets" : 1,
					"outlettype" : [ "" ],
					"patching_rect" : [ 550.0, 10.0, 30.0, 30.0 ],
					"varname" : "in5"
				}

			}
, 			{
				"box" : 				{
					"id" : "obj-37",
					"maxclass" : "button",
					"numinlets" : 1,
					"numoutlets" : 1,
					"outlettype" : [ "bang" ],
					"parameter_enable" : 0,
					"patching_rect" : [ 550.0, 60.0, 24.0, 24.0 ],
					"varname" : "bang5"
				}

			}
, 			{
				"box" : 				{
					"comment" : "",
					"id" : "obj-39",
					"index" : 5,
					"maxclass" : "outlet",
					"numinlets" : 1,
					"numoutlets" : 0,
					"patching_rect" : [ 660.0, 330.0, 30.0, 30.0 ],
					"varname" : "out5"
				}

			}
 ],
		"lines" : [ 			{
				"patchline" : 				{
					"destination" : [ "obj-12", 1 ],
					"source" : [ "obj-1", 1 ]
				}

			}
, 			{
				"patchline" : 				{
					"destination" : [ "obj-24", 1 ],
					"source" : [ "obj-1", 2 ]
				}

			}
, 			{
				"patchline" : 				{
					"destination" : [ "obj-3", 1 ],
					"source" : [ "obj-1", 0 ]
				}

			}
, 			{
				"patchline" : 				{
					"destination" : [ "obj-31", 1 ],
					"source" : [ "obj-1", 3 ]
				}

			}
, 			{
				"patchline" : 				{
					"destination" : [ "obj-39", 0 ],
					"source" : [ "obj-1", 4 ]
				}

			}
, 			{
				"patchline" : 				{
					"destination" : [ "obj-3", 0 ],
					"source" : [ "obj-10", 0 ]
				}

			}
, 			{
				"patchline" : 				{
					"destination" : [ "obj-13", 0 ],
					"source" : [ "obj-11", 2 ]
				}

			}
, 			{
				"patchline" : 				{
					"destination" : [ "obj-16", 0 ],
					"midpoints" : [ 195.0, 497.5, 255.0, 497.5 ],
					"source" : [ "obj-11", 1 ]
				}

			}
, 			{
				"patchline" : 				{
					"destination" : [ "obj-17", 0 ],
					"source" : [ "obj-11", 0 ]
				}

			}
, 			{
				"patchline" : 				{
					"destination" : [ "obj-19", 0 ],
					"source" : [ "obj-12", 0 ]
				}

			}
, 			{
				"patchline" : 				{
					"destination" : [ "obj-6", 0 ],
					"midpoints" : [ 363.0, 668.5, 27.0, 668.5 ],
					"source" : [ "obj-13", 0 ]
				}

			}
, 			{
				"patchline" : 				{
					"destination" : [ "obj-1", 0 ],
					"source" : [ "obj-1473", 0 ]
				}

			}
, 			{
				"patchline" : 				{
					"destination" : [ "obj-11", 0 ],
					"source" : [ "obj-15", 0 ]
				}

			}
, 			{
				"patchline" : 				{
					"destination" : [ "obj-6", 0 ],
					"midpoints" : [ 255.0, 669.0, 27.0, 669.0 ],
					"source" : [ "obj-16", 0 ]
				}

			}
, 			{
				"patchline" : 				{
					"destination" : [ "obj-6", 0 ],
					"midpoints" : [ 27.0, 655.5, 27.0, 655.5 ],
					"source" : [ "obj-1665", 0 ]
				}

			}
, 			{
				"patchline" : 				{
					"destination" : [ "obj-838", 0 ],
					"source" : [ "obj-17", 0 ]
				}

			}
, 			{
				"patchline" : 				{
					"destination" : [ "obj-69", 0 ],
					"source" : [ "obj-18", 2 ]
				}

			}
, 			{
				"patchline" : 				{
					"destination" : [ "obj-11", 0 ],
					"source" : [ "obj-2", 0 ]
				}

			}
, 			{
				"patchline" : 				{
					"destination" : [ "obj-23", 0 ],
					"source" : [ "obj-21", 0 ]
				}

			}
, 			{
				"patchline" : 				{
					"destination" : [ "obj-12", 0 ],
					"source" : [ "obj-23", 0 ]
				}

			}
, 			{
				"patchline" : 				{
					"destination" : [ "obj-26", 0 ],
					"source" : [ "obj-24", 0 ]
				}

			}
, 			{
				"patchline" : 				{
					"destination" : [ "obj-30", 0 ],
					"source" : [ "obj-28", 0 ]
				}

			}
, 			{
				"patchline" : 				{
					"destination" : [ "obj-5", 0 ],
					"source" : [ "obj-3", 0 ]
				}

			}
, 			{
				"patchline" : 				{
					"destination" : [ "obj-24", 0 ],
					"source" : [ "obj-30", 0 ]
				}

			}
, 			{
				"patchline" : 				{
					"destination" : [ "obj-33", 0 ],
					"source" : [ "obj-31", 0 ]
				}

			}
, 			{
				"patchline" : 				{
					"destination" : [ "obj-37", 0 ],
					"source" : [ "obj-35", 0 ]
				}

			}
, 			{
				"patchline" : 				{
					"destination" : [ "obj-31", 0 ],
					"source" : [ "obj-37", 0 ]
				}

			}
, 			{
				"patchline" : 				{
					"destination" : [ "obj-1665", 2 ],
					"source" : [ "obj-69", 0 ]
				}

			}
, 			{
				"patchline" : 				{
					"destination" : [ "obj-896", 1 ],
					"source" : [ "obj-69", 2 ]
				}

			}
, 			{
				"patchline" : 				{
					"destination" : [ "obj-896", 0 ],
					"source" : [ "obj-69", 1 ]
				}

			}
, 			{
				"patchline" : 				{
					"destination" : [ "obj-10", 0 ],
					"source" : [ "obj-8", 0 ]
				}

			}
, 			{
				"patchline" : 				{
					"destination" : [ "obj-1665", 1 ],
					"midpoints" : [ 157.0, 516.0, 70.0, 516.0 ],
					"order" : 1,
					"source" : [ "obj-838", 2 ]
				}

			}
, 			{
				"patchline" : 				{
					"destination" : [ "obj-1665", 0 ],
					"source" : [ "obj-838", 0 ]
				}

			}
, 			{
				"patchline" : 				{
					"destination" : [ "obj-18", 0 ],
					"source" : [ "obj-838", 1 ]
				}

			}
, 			{
				"patchline" : 				{
					"destination" : [ "obj-896", 2 ],
					"midpoints" : [ 157.0, 515.0, 229.5, 515.0 ],
					"order" : 0,
					"source" : [ "obj-838", 2 ]
				}

			}
, 			{
				"patchline" : 				{
					"destination" : [ "obj-6", 0 ],
					"midpoints" : [ 151.5, 667.5, 27.0, 667.5 ],
					"source" : [ "obj-896", 0 ]
				}

			}
 ]
	}

}
